<svg xmlns="http://www.w3.org/2000/svg" width="32" height="32" viewBox="0 0 32 32" fill="none">
  <path d="M23.2002 11.2H25.6002C25.9185 11.2 26.2237 11.3265 26.4487 11.5515C26.6738 11.7766 26.8002 12.0818 26.8002 12.4V26.8C26.8002 27.1183 26.6738 27.4235 26.4487 27.6486C26.2237 27.8736 25.9185 28 25.6002 28H6.4002C6.08194 28 5.77671 27.8736 5.55167 27.6486C5.32662 27.4235 5.2002 27.1183 5.2002 26.8V12.4C5.2002 12.0818 5.32662 11.7766 5.55167 11.5515C5.77671 11.3265 6.08194 11.2 6.4002 11.2H8.8002V10C8.8002 8.09049 9.55876 6.25914 10.909 4.90888C12.2593 3.55862 14.0906 2.80005 16.0002 2.80005C17.9098 2.80005 19.7411 3.55862 21.0914 4.90888C22.4416 6.25914 23.2002 8.09049 23.2002 10V11.2ZM20.8002 11.2V10C20.8002 8.72701 20.2945 7.50611 19.3943 6.60594C18.4941 5.70576 17.2732 5.20005 16.0002 5.20005C14.7272 5.20005 13.5063 5.70576 12.6061 6.60594C11.7059 7.50611 11.2002 8.72701 11.2002 10V11.2H20.8002ZM14.8002 18.4V20.8H17.2002V18.4H14.8002ZM10.0002 18.4V20.8H12.4002V18.4H10.0002ZM19.6002 18.4V20.8H22.0002V18.4H19.6002Z" fill="#9C9C9C"/>
</svg>